<?xml version="1.0" encoding="UTF-8" standalone="no"?>
<svg
   version="1.0"
   width="421.79999pt"
   height="453.69998pt"
   viewBox="0 0 421.79999 453.69998"
   preserveAspectRatio="xMidYMid"
   id="svg52"
   sodipodi:docname="black_and_white_logo_for_a_ai_tech6.svg"
   xmlns:inkscape="http://www.inkscape.org/namespaces/inkscape"
   xmlns:sodipodi="http://sodipodi.sourceforge.net/DTD/sodipodi-0.dtd"
   xmlns="http://www.w3.org/2000/svg"
   xmlns:svg="http://www.w3.org/2000/svg">
  <defs
     id="defs56">
    <filter
       style="color-interpolation-filters:sRGB"
       inkscape:label="Invert"
       id="filter325"
       x="0"
       y="0"
       width="1"
       height="1">
      <feColorMatrix
         type="hueRotate"
         values="180"
         result="color1"
         id="feColorMatrix321" />
      <feColorMatrix
         values="0 0 -1 0 1 0 -1 0 0 1 -1 0 0 0 1 -0.21 -0.72 -0.07 2 0 "
         result="fbSourceGraphic"
         id="feColorMatrix323" />
      <feColorMatrix
         result="fbSourceGraphicAlpha"
         in="fbSourceGraphic"
         values="0 0 0 -1 0 0 0 0 -1 0 0 0 0 -1 0 0 0 0 1 0"
         id="feColorMatrix327" />
      <feColorMatrix
         id="feColorMatrix329"
         type="hueRotate"
         values="180"
         result="color1"
         in="fbSourceGraphic" />
      <feColorMatrix
         id="feColorMatrix331"
         values="0 0 -1 0 1 0 -1 0 0 1 -1 0 0 0 1 -0.21 -0.72 -0.07 2 0 "
         result="color2" />
    </filter>
  </defs>
  <sodipodi:namedview
     id="namedview54"
     pagecolor="#ffffff"
     bordercolor="#666666"
     borderopacity="1.0"
     inkscape:showpageshadow="2"
     inkscape:pageopacity="0.0"
     inkscape:pagecheckerboard="0"
     inkscape:deskcolor="#d1d1d1"
     inkscape:document-units="pt"
     showgrid="false" />
  <g
     transform="matrix(0.1,0,0,-0.1,-303.69999,732.90002)"
     fill="#000000"
     stroke="none"
     id="g50"
     style="filter:url(#filter325)">
    <path
       d="m 6627,7205 -118,-121 218,-226 c 120,-124 223,-226 228,-227 6,-1 64,53 129,118 l 119,120 -223,230 c -123,127 -226,230 -229,230 -3,-1 -59,-57 -124,-124 z"
       id="path30" />
    <path
       d="m 3281,7086 -214,-215 110,-118 c 61,-65 120,-127 132,-137 l 22,-20 217,217 217,217 -135,135 -135,135 z"
       id="path32" />
    <path
       d="M 5010,7150 C 4618,7115 4232,6947 3935,6682 3567,6355 3326,5861 3294,5370 l -7,-99 51,-55 50,-55 -85,-193 c -46,-105 -102,-233 -122,-283 l -38,-91 315,-17 c 174,-10 318,-20 321,-23 4,-4 -47,-273 -65,-339 -5,-19 5,-23 115,-50 99,-24 121,-32 121,-47 0,-25 -14,-24 -224,27 -103,25 -193,45 -200,45 -12,0 -50,-119 -41,-128 5,-5 196,-53 430,-108 110,-26 203,-50 208,-54 4,-3 1,-14 -6,-24 -12,-17 -22,-15 -172,29 -88,25 -167,48 -177,51 -13,4 -18,-8 -28,-65 -15,-91 -17,-84 22,-94 183,-43 542,-146 751,-214 76,-24 140,-43 141,-41 1,2 13,21 26,43 13,22 70,111 127,198 l 103,157 140,-70 140,-70 v -218 c 0,-119 3,-327 7,-462 l 6,-245 71,-41 71,-42 26,82 c 183,561 304,914 320,931 18,18 21,19 47,4 22,-12 26,-21 23,-45 -9,-65 -8,-66 44,-85 28,-9 55,-18 60,-18 6,-1 16,20 23,45 12,44 13,45 49,42 33,-3 37,-7 48,-43 10,-36 14,-40 41,-37 16,2 43,7 60,13 28,9 30,12 30,56 -1,43 2,48 27,57 24,9 31,6 60,-21 l 32,-31 47,42 48,42 -26,37 c -24,36 -24,38 -7,62 18,26 35,27 89,10 19,-6 24,0 42,47 22,59 18,73 -29,83 -28,6 -30,9 -27,48 2,33 7,42 23,45 69,10 68,9 61,63 -10,73 -11,75 -59,71 -38,-3 -44,0 -60,29 l -18,32 33,34 c 18,19 32,42 30,52 -2,16 9,19 110,24 62,4 150,7 196,7 45,0 82,4 82,9 0,5 -43,102 -95,216 -52,114 -92,211 -89,216 3,6 42,9 87,8 l 82,-2 59,64 c 32,35 112,121 176,191 l 118,128 -19,87 c -50,248 -184,615 -294,810 -322,571 -913,932 -1565,957 -69,2 -168,0 -220,-4 z m 305,-220 c 538,-52 1009,-361 1279,-838 64,-113 223,-506 256,-636 l 24,-88 -126,-124 -125,-125 -74,3 c -66,3 -74,5 -74,23 0,36 -39,30 -60,-10 -11,-19 -23,-35 -26,-35 -16,0 -19,63 -10,160 6,56 11,104 11,107 0,11 74,33 115,33 39,0 47,-4 57,-25 13,-29 19,-30 58,-10 36,18 37,26 9,51 -12,10 -30,37 -40,60 l -18,41 -78,-12 c -169,-26 -163,-27 -163,4 v 28 l 90,6 c 50,4 108,10 129,13 l 40,6 29,-59 c 36,-70 54,-87 82,-78 28,9 26,28 -17,140 l -37,98 -115,-7 c -64,-4 -145,-11 -179,-15 -59,-7 -65,-6 -72,13 -5,12 -24,60 -43,107 -93,241 -311,475 -555,598 -257,130 -589,152 -873,60 -269,-87 -519,-306 -659,-577 -21,-41 -37,-61 -46,-58 -7,3 -65,13 -129,23 -63,10 -114,20 -112,23 1,3 24,48 51,100 207,405 547,669 979,762 82,17 136,22 277,22 205,0 293,-14 455,-74 304,-113 534,-289 699,-538 55,-82 156,-274 156,-296 0,-3 -19,-6 -42,-6 h -43 l -46,98 c -147,306 -439,565 -758,672 -209,69 -522,79 -741,22 -244,-63 -408,-158 -590,-341 -117,-118 -176,-197 -250,-334 -28,-51 -37,-77 -28,-78 7,0 34,-4 59,-8 l 47,-8 11,37 c 35,119 252,366 414,474 256,170 584,233 897,172 394,-76 747,-369 887,-736 37,-98 8,-89 239,-76 l 142,8 30,-78 c 38,-101 75,-215 71,-217 -7,-4 -45,-24 -131,-71 -76,-41 -88,-45 -88,-29 0,39 -24,56 -83,59 l -57,3 v -69 c 0,-76 10,-87 35,-40 9,17 22,30 30,30 21,0 19,-20 -6,-46 l -20,-22 27,-21 c 41,-32 122,-30 155,5 19,20 181,160 197,170 2,1 -15,65 -38,141 -22,76 -50,168 -61,206 -19,65 -20,67 -53,67 -32,0 -35,3 -57,58 -82,207 -201,385 -368,553 -225,224 -481,365 -784,431 -148,32 -457,32 -602,1 -308,-68 -556,-199 -773,-408 -265,-254 -428,-568 -491,-944 l -20,-115 35,-40 c 31,-36 34,-45 29,-79 -6,-34 -3,-42 38,-90 62,-73 129,-144 123,-131 -3,7 3,90 14,185 15,132 17,175 8,180 -9,6 -6,48 14,174 15,92 29,169 31,172 5,5 188,-15 194,-21 2,-2 0,-11 -3,-20 -6,-15 -16,-17 -74,-11 l -67,7 -12,-94 c -23,-180 -50,-425 -57,-519 -7,-94 -16,-129 -35,-129 -5,0 -31,24 -57,52 -26,29 -73,81 -105,115 -52,54 -58,65 -52,91 5,26 -1,37 -44,87 l -51,58 6,56 c 10,94 52,292 79,376 30,91 121,286 168,360 142,227 347,431 562,560 292,176 646,257 980,225 z m 11,-745 c 84,-16 161,-41 182,-60 10,-9 6,-16 -19,-34 l -31,-23 -72,22 c -142,44 -391,36 -500,-17 -33,-15 -35,-15 -70,13 -20,16 -36,32 -36,35 0,8 131,50 205,65 85,17 249,17 341,-1 z m -18,-131 c 47,-9 118,-35 182,-66 93,-45 115,-61 200,-147 74,-74 105,-115 137,-176 52,-100 79,-183 94,-285 6,-44 15,-80 20,-80 13,0 11,-28 -3,-32 -6,-2 -19,-51 -29,-109 -35,-208 -134,-373 -299,-501 -19,-15 -32,-28 -30,-30 3,-2 24,-18 48,-36 l 42,-33 45,39 c 24,21 66,65 92,97 73,89 90,105 113,105 16,0 20,-6 20,-33 0,-54 -123,-194 -264,-300 -56,-42 -75,-45 -102,-16 -19,21 -18,21 7,42 14,12 34,27 44,32 15,9 12,15 -29,49 l -47,38 -73,-32 -74,-33 13,-31 c 16,-39 9,-54 -30,-61 -33,-6 -46,0 -62,30 -9,15 -20,19 -52,16 -31,-2 -43,2 -53,18 -17,28 -26,26 -30,-6 -3,-25 -7,-28 -45,-31 -24,-2 -43,1 -43,6 0,8 -41,18 -165,38 -25,4 -27,3 -12,-8 21,-16 7,-44 -18,-34 -12,4 -16,14 -13,31 5,22 -4,30 -88,76 -110,61 -206,138 -261,211 -39,51 -78,118 -71,122 2,1 57,19 123,40 66,21 135,47 153,57 18,10 36,19 40,19 4,0 20,-16 35,-35 l 28,-35 -82,-121 -81,-122 23,-19 c 35,-27 190,-110 196,-104 2,2 33,62 67,133 l 63,128 104,-2 104,-2 65,-131 c 35,-71 71,-130 78,-130 23,0 147,68 210,116 2,1 -33,57 -77,124 -45,68 -81,125 -81,127 0,3 12,19 26,36 14,16 38,56 54,87 l 29,57 119,-18 c 66,-9 133,-20 149,-23 29,-7 31,-5 37,31 3,21 9,82 13,137 l 6,99 -157,-4 -158,-4 -17,55 c -19,62 -41,101 -82,145 l -28,30 85,130 c 46,72 84,133 84,136 0,8 -140,87 -180,102 -21,8 -35,8 -37,2 -2,-5 -34,-66 -71,-134 l -67,-124 -94,-1 -93,-1 -69,138 c -38,75 -72,137 -76,137 -12,0 -167,-79 -191,-98 l -23,-18 80,-131 c 45,-71 81,-135 81,-140 0,-29 -37,-13 -155,68 -72,48 -133,88 -137,89 -14,0 -126,-197 -116,-204 2,-2 67,-36 146,-77 189,-98 188,-105 -21,-101 l -157,3 v -95 c 0,-53 3,-96 8,-96 4,0 70,18 147,40 77,22 143,40 147,40 5,0 8,-9 8,-20 0,-11 -6,-20 -14,-20 -7,0 -33,-11 -57,-23 -24,-13 -69,-30 -99,-37 -30,-7 -69,-19 -86,-27 -29,-13 -32,-12 -67,21 l -37,35 v 105 106 h -26 c -26,0 -26,1 -20,49 6,43 4,50 -13,56 -36,11 -42,28 -24,76 9,24 18,46 20,48 1,2 21,-8 43,-23 22,-14 43,-26 48,-26 5,0 21,27 37,59 27,58 27,61 11,86 -9,14 -14,30 -11,35 10,16 37,11 41,-7 4,-14 26,3 98,74 84,82 106,97 217,152 76,37 151,66 194,75 94,19 229,19 323,0 z m -615,-51 c 4,-41 1,-51 -20,-70 -31,-30 -51,-28 -91,6 l -34,29 58,41 c 31,22 63,41 70,41 7,0 14,-19 17,-47 z m 1064,-48 c 125,-115 202,-234 256,-396 38,-114 50,-212 45,-351 -6,-134 -12,-161 -37,-156 -19,4 -27,44 -12,62 8,10 6,20 -10,40 -19,25 -22,42 -24,154 -2,141 -18,207 -82,338 -45,94 -146,219 -216,269 -47,34 -56,45 -57,72 0,17 3,38 6,47 9,23 45,1 131,-79 z M 4050,5565 c 0,-16 -26,-20 -57,-8 -16,6 -15,8 7,14 40,11 50,10 50,-6 z m 1193,-11 c 63,-21 130,-84 163,-151 69,-139 9,-311 -133,-383 -66,-34 -188,-35 -250,-2 -110,58 -166,147 -166,265 -1,87 16,129 75,193 80,87 197,117 311,78 z m -1255,-45 c 42,-9 49,-13 45,-30 -4,-15 -11,-18 -27,-13 -49,15 -86,34 -86,43 0,14 7,14 68,0 z m 14,-214 c -3,-29 -8,-45 -16,-42 -16,5 -19,42 -6,66 17,34 25,24 22,-24 z m 338,-25 v -60 h -45 -45 v 54 55 l 43,4 c 23,2 43,4 45,5 1,1 2,-25 2,-58 z m -307,-244 c 8,-24 5,-32 -18,-55 l -27,-26 6,34 c 3,18 6,45 6,58 0,32 21,25 33,-11 z m 251,13 c -3,-5 -10,-7 -15,-3 -5,3 -7,10 -3,15 3,5 10,7 15,3 5,-3 7,-10 3,-15 z m -687,-8 c 11,-17 6,-35 -31,-118 l -44,-98 107,-6 c 58,-4 107,-5 109,-4 2,2 -1,12 -7,23 -7,13 -7,22 1,30 9,9 21,1 49,-30 35,-37 41,-40 76,-34 21,3 53,6 71,6 22,0 41,8 57,26 l 24,26 7,-37 c 3,-20 5,-38 3,-40 -2,-2 -62,-10 -134,-19 -100,-12 -167,-14 -291,-8 l -160,7 65,148 c 36,81 70,147 76,147 5,0 16,-9 22,-19 z m 2386,-77 c -15,-40 -24,-50 -45,-52 -23,-3 -26,1 -32,35 -4,21 -9,46 -12,56 -4,14 1,17 33,17 21,0 45,5 53,10 23,14 24,-9 3,-66 z m 365,29 c 25,-51 132,-326 132,-340 0,-8 -41,-13 -127,-15 -71,-2 -130,-2 -132,0 -3,1 3,10 12,19 13,13 40,18 110,21 l 93,4 -63,156 c -34,86 -67,158 -73,160 -8,3 -7,8 1,18 18,22 27,17 47,-23 z m -1946,-73 c 25,0 31,-6 48,-45 10,-24 22,-60 25,-79 6,-30 3,-37 -19,-51 -34,-23 -45,-14 -102,84 -54,92 -55,106 -13,97 17,-3 45,-6 61,-6 z m 1386,-137 c -5,-25 -28,-28 -28,-4 0,12 6,21 16,21 9,0 14,-7 12,-17 z m -1248,-124 39,-41 29,18 c 39,22 57,14 72,-32 12,-36 11,-39 -14,-59 -14,-11 -26,-26 -26,-33 0,-21 -13,-13 -89,52 -88,76 -114,112 -91,126 26,17 40,11 80,-31 z m -290,-11 c 0,-9 -67,-112 -146,-224 -40,-56 -46,-60 -74,-56 -28,4 -35,13 -71,91 -36,76 -40,92 -35,138 9,74 12,80 47,75 27,-4 30,-8 24,-29 -18,-72 -17,-82 10,-132 15,-28 31,-48 35,-46 4,3 36,46 70,97 90,133 87,130 116,111 13,-8 24,-19 24,-25 z m -130,13 c 0,-9 -70,-111 -75,-111 -3,0 -5,24 -5,54 0,52 1,55 28,58 43,5 52,5 52,-1 z m 705,-170 c 12,-39 46,-70 83,-76 70,-12 68,-7 26,-73 -1,-2 -36,10 -79,27 -102,39 -122,66 -89,116 19,30 50,33 59,6 z m 375,-51 c 20,-47 47,-60 111,-48 30,5 78,18 107,29 70,25 74,25 70,-13 -2,-26 -10,-37 -38,-50 -60,-29 -175,-48 -288,-47 -120,1 -156,8 -160,30 -4,23 41,39 114,39 h 65 l -16,30 c -20,39 -19,60 4,60 11,0 23,-12 31,-30 z m 854,-141 c 50,-34 80,-93 80,-156 0,-43 -5,-58 -30,-89 -45,-56 -74,-74 -129,-80 -116,-13 -213,94 -191,210 23,121 170,184 270,115 z m -1591,-71 c 96,-53 135,-179 87,-281 -80,-169 -332,-155 -395,22 -30,87 -13,156 55,222 74,72 165,85 253,37 z m 774,-150 c 38,-77 93,-357 93,-472 0,-42 3,-57 10,-50 7,7 11,71 11,165 0,138 -8,212 -37,357 -6,29 -4,32 19,32 23,0 27,-6 36,-52 47,-226 42,-457 -15,-658 -28,-102 -39,-68 -53,175 -10,171 -36,320 -76,450 -29,94 -28,88 -12,83 6,-3 18,-16 24,-30 z"
       id="path34" />
    <path
       d="m 5097,5446 c -75,-27 -117,-86 -117,-161 0,-123 113,-203 225,-161 82,32 129,119 106,196 -29,99 -128,157 -214,126 z"
       id="path36" />
    <path
       d="m 5895,4280 c -58,-24 -99,-109 -84,-178 19,-91 133,-139 219,-93 136,72 84,282 -69,280 -25,0 -55,-4 -66,-9 z"
       id="path38" />
    <path
       d="m 4282,4183 c -102,-50 -124,-191 -42,-273 69,-69 176,-65 243,9 41,45 54,100 38,157 -29,102 -145,154 -239,107 z m 140,-82 c 27,-24 33,-36 33,-71 0,-35 -6,-47 -34,-72 -29,-26 -39,-30 -75,-25 -124,17 -109,195 16,197 17,0 41,-12 60,-29 z"
       id="path40" />
    <path
       d="m 4328,4069 c -26,-14 -23,-65 3,-79 52,-28 102,28 64,70 -20,22 -41,25 -67,9 z"
       id="path42" />
    <path
       d="m 4879,3748 c -29,-46 -86,-133 -126,-194 l -73,-112 -68,28 c -118,48 -412,157 -588,219 l -171,59 -42,-101 c -23,-55 -38,-104 -34,-108 5,-3 33,-14 63,-24 272,-86 830,-338 1173,-529 l 97,-54 v 188 c 0,103 -3,288 -7,412 l -6,225 -74,37 c -40,20 -77,36 -82,36 -5,0 -33,-37 -62,-82 z"
       id="path44" />
    <path
       d="m 6685,3550 -240,-240 162,-162 163,-163 242,243 243,242 -160,160 c -88,88 -162,160 -165,160 -3,0 -113,-108 -245,-240 z"
       id="path46" />
    <path
       d="m 3166,3551 -129,-129 218,-226 c 121,-124 223,-226 229,-226 5,0 67,57 137,128 l 128,127 -222,228 c -122,125 -224,227 -227,227 -3,0 -63,-58 -134,-129 z"
       id="path48" />
  </g>
</svg>
